<svg xmlns="http://www.w3.org/2000/svg" viewBox="0 0 24 24" width="24" height="24">
    <path fill="#fff" d="M12 2C6.48 2 2 6.48 2 12s4.48 10 10 10 10-4.48 10-10S17.52 2 12 2zm5.64 13.64c-.66 1.95-2.28 3.39-4.24 3.89-1.96.5-4.02-.04-5.63-1.48-1.61-1.44-2.39-3.57-2.11-5.72.28-2.15 1.71-3.99 3.72-4.76 1.21-.47 2.49-.55 3.73-.24 1.05.26 2.01.83 2.75 1.64l-1.51 1.51c-.87-.89-2.11-1.33-3.35-1.15-1.24.18-2.34.96-2.88 2.05-.54 1.09-.55 2.37-.02 3.47.53 1.1 1.61 1.9 2.84 2.1 1.23.2 2.49-.22 3.3-1.1.39-.42.67-.93.82-1.47H12v-2h6.26c.14.62.2 1.27.17 1.91-.04.87-.26 1.72-.66 2.48l-.13.37z"/>
</svg>